<svg xmlns="http://www.w3.org/2000/svg" version="1.1" xmlns:xlink="http://www.w3.org/1999/xlink" xmlns:svgjs="http://svgjs.dev/svgjs" width="1500" height="1500" viewBox="0 0 1500 1500"><rect width="1500" height="1500" fill="#ffffff"></rect><g transform="matrix(0.6666666666666666,0,0,0.6666666666666666,248.27607193689545,128)"><svg viewBox="0 0 200 248" data-background-color="#ffffff" preserveAspectRatio="xMidYMid meet" height="1860" width="1500" xmlns="http://www.w3.org/2000/svg" xmlns:xlink="http://www.w3.org/1999/xlink"><g id="tight-bounds" transform="matrix(1,0,0,1,0.34478561262091034,0.4000000000000057)"><svg viewBox="0 0 199.3104287747582 247.2" height="247.2" width="199.3104287747582"><g><svg viewBox="0 0 395.52 490.5540798895841" height="247.2" width="199.3104287747582"><g transform="matrix(1,0,0,1,0,291.7680454149394)"><svg viewBox="0 0 395.52 198.78603447464468" height="198.78603447464468" width="395.52"><g id="textblocktransform"><svg viewBox="0 0 395.52 198.78603447464468" height="198.78603447464468" width="395.52" id="textblock"><g><svg viewBox="0 0 395.52 144.5774085663594" height="144.5774085663594" width="395.52"><g transform="matrix(1,0,0,1,0,0)"><svg width="395.52" viewBox="0.8 -38.311363635498 105.36499999999 38.51136363549799" height="144.5774085663594" data-palette-color="#d2d6dc"><path d="M26.8-15.75L26.8-15.75Q25.95-14 24.8-12.23 23.65-10.45 22.4-9.05L22.4-9.05Q22.35-8.95 22.15-8.72 21.95-8.5 21.8-8.55L21.8-8.55Q21.7-8.65 21.75-8.9 21.8-9.15 21.85-9.3L21.85-9.3Q22.1-10.1 22.6-11.4 23.1-12.7 23.65-13.5L23.65-13.5Q23.8-13.75 24.28-14.9 24.75-16.05 25.2-17.48 25.65-18.9 25.88-20.25 26.1-21.6 25.8-22.25L25.8-22.25Q25.8-22.25 25.8-22.4L25.8-22.4 25.8-22.45Q26.05-22.45 26.15-22.25L26.15-22.25Q26.7-21.6 26.98-20.75 27.25-19.9 27.3-19 27.35-18.1 27.23-17.23 27.1-16.35 26.8-15.75ZM28.45-18.75L28.45-18.75Q29-17.75 28.78-16.28 28.55-14.8 27.98-13.28 27.4-11.75 26.68-10.38 25.95-9 25.5-8.15L25.5-8.15Q24.75-6.7 23.68-5.23 22.6-3.75 21.7-2.6L21.7-2.6Q21.45-2.25 21.25-2.25L21.25-2.25Q21.15-2.35 21.18-2.5 21.2-2.65 21.25-2.8L21.25-2.8Q22.05-5.4 23.25-7.63 24.45-9.85 25.75-12.25L25.75-12.25Q26.6-13.75 27.3-15.35 28-16.95 28.2-18.85L28.2-18.85Q28.2-19.05 28.3-19.05L28.3-19.05Q28.35-18.95 28.4-18.9 28.45-18.85 28.45-18.75ZM15.15-15.75L15.15-15.75Q14.3-14 13.15-12.23 12-10.45 10.75-9.05L10.75-9.05Q10.7-8.95 10.5-8.72 10.3-8.5 10.15-8.55L10.15-8.55Q10.05-8.65 10.1-8.9 10.15-9.15 10.2-9.3L10.2-9.3Q10.45-10.1 10.95-11.4 11.45-12.7 12-13.5L12-13.5Q12.15-13.75 12.63-14.9 13.1-16.05 13.55-17.48 14-18.9 14.25-20.25 14.5-21.6 14.2-22.25L14.2-22.25Q14.15-22.3 14.15-22.4L14.15-22.4Q14.15-22.45 14.2-22.45L14.2-22.45Q14.4-22.45 14.5-22.25L14.5-22.25Q15.05-21.6 15.33-20.75 15.6-19.9 15.65-19 15.7-18.1 15.58-17.23 15.45-16.35 15.15-15.75ZM16.7-20L16.7-20Q17-20 17.32-19.28 17.65-18.55 17.8-17.05L17.8-17.05Q18.05-15.2 17.73-13.23 17.4-11.25 16.9-9.5L16.9-9.5Q16.9-9.4 16.85-9.15 16.8-8.9 16.6-8.85L16.6-8.85Q16.5-8.85 16.4-9.1 16.3-9.35 16.3-9.45L16.3-9.45Q16.15-10 16.05-10.78 15.95-11.55 15.95-12.35L15.95-12.35Q15.65-11.65 15.35-11 15.05-10.35 14.75-9.8L14.75-9.8 14.75-9.3Q14.8-7.1 15.65-4.83 16.5-2.55 18.55-0.95L18.55-0.95Q18.35-1.45 18.28-1.68 18.2-1.9 17.75-2.55L17.75-2.55Q17.5-2.85 17.3-3.38 17.1-3.9 16.95-4.38 16.8-4.85 16.78-5.2 16.75-5.55 16.9-5.55L16.9-5.55Q17.15-5.65 17.38-5.3 17.6-4.95 17.75-4.65L17.75-4.65Q17.65-5.7 17.85-6.78 18.05-7.85 18.15-8.75L18.15-8.75Q18.3-10.05 18.4-11.08 18.5-12.1 18.55-13.55L18.55-13.55Q18.65-15.1 18.55-16.95 18.45-18.8 17.75-20.55L17.75-20.55Q17.65-20.7 17.8-20.7L17.8-20.7Q17.9-20.7 17.95-20.65 18-20.6 18.1-20.55L18.1-20.55Q18.75-20.05 19.18-19.18 19.6-18.3 19.83-17.23 20.05-16.15 20.13-14.98 20.2-13.8 20.2-12.75L20.2-12.75Q20.95-14.1 21.75-15.45 22.55-16.8 23.18-18.13 23.8-19.45 24.15-20.75 24.5-22.05 24.45-23.3L24.45-23.3Q24.45-23.45 24.5-23.45L24.5-23.45Q24.65-23.5 24.65-23.3L24.65-23.3Q25.4-21.65 25.13-19.95 24.85-18.25 24.08-16.55 23.3-14.85 22.25-13.18 21.2-11.5 20.4-9.85L20.4-9.85Q19.4-7.75 18.98-5.25 18.55-2.75 19.25 0L19.25 0 19.25 0.05Q19.2 0.1 19.2 0.1L19.2 0.1Q19.1 0.1 19.05 0.05L19.05 0.05Q19 0.05 18.95 0L18.95 0Q18.8-0.2 18.63-0.4 18.45-0.6 18.1-0.8L18.1-0.8Q15.8-2 14.78-3.73 13.75-5.45 13.45-7.35L13.45-7.35Q12.65-6.1 11.73-4.85 10.8-3.6 10.05-2.6L10.05-2.6Q9.8-2.25 9.6-2.25L9.6-2.25Q9.5-2.35 9.53-2.5 9.55-2.65 9.6-2.8L9.6-2.8Q10.4-5.4 11.65-7.73 12.9-10.05 14.25-12.4L14.25-12.4Q14.65-13.1 15.03-13.78 15.4-14.45 15.73-15.15 16.05-15.85 16.28-16.7 16.5-17.55 16.65-18.65L16.65-18.65Q16.7-19 16.63-19.5 16.55-20 16.7-20ZM6.15-17.2L6.15-17.2Q6.15-15.35 5.95-13.3 5.75-11.25 5.25-9.5L5.25-9.5Q5.25-9.4 5.2-9.15 5.15-8.9 4.95-8.85L4.95-8.85Q4.85-8.85 4.75-9.1 4.65-9.35 4.65-9.45L4.65-9.45Q4.55-9.85 4.48-10.43 4.4-11 4.35-11.6 4.3-12.2 4.28-12.8 4.25-13.4 4.3-13.85L4.3-13.85Q4.35-14.15 4.25-15.35 4.15-16.55 3.95-17.95 3.75-19.35 3.4-20.65 3.05-21.95 2.55-22.4L2.55-22.4Q2.45-22.5 2.43-22.63 2.4-22.75 2.45-22.75L2.45-22.75Q2.55-22.75 2.68-22.68 2.8-22.6 2.9-22.6L2.9-22.6Q3.6-22.25 4.2-21.6 4.8-20.95 5.23-20.2 5.65-19.45 5.9-18.65 6.15-17.85 6.15-17.2ZM13-23.2L13-23.2Q13.75-21.55 13.48-19.88 13.2-18.2 12.43-16.53 11.65-14.85 10.6-13.18 9.55-11.5 8.75-9.85L8.75-9.85Q7.75-7.75 7.33-5.25 6.9-2.75 7.6 0L7.6 0 7.6 0.05Q7.55 0.1 7.55 0.1L7.55 0.1Q7.45 0.1 7.4 0.05L7.4 0.05Q7.35 0.05 7.35 0L7.35 0Q7.2-0.2 7-0.4 6.8-0.6 6.45-0.8L6.45-0.8Q5-1.55 4.05-2.55 3.1-3.55 2.58-4.7 2.05-5.85 1.83-7.1 1.6-8.35 1.6-9.6L1.6-9.6Q1.55-11.4 1.68-13.23 1.8-15.05 1.83-16.75 1.85-18.45 1.65-20.03 1.45-21.6 0.8-22.9L0.8-22.9Q0.8-23 0.8-23L0.8-23Q0.9-23.1 1-23.03 1.1-22.95 1.15-22.95L1.15-22.95Q2.45-21.75 2.9-20.15 3.35-18.55 3.4-16.75 3.45-14.95 3.25-13.05 3.05-11.15 3.1-9.3L3.1-9.3Q3.15-8.2 3.35-7.05 3.55-5.9 4-4.83 4.45-3.75 5.18-2.75 5.9-1.75 6.9-0.95L6.9-0.95Q6.7-1.45 6.6-1.68 6.5-1.9 6.1-2.55L6.1-2.55Q5.85-2.85 5.65-3.38 5.45-3.9 5.3-4.38 5.15-4.85 5.13-5.2 5.1-5.55 5.25-5.55L5.25-5.55Q5.5-5.65 5.73-5.3 5.95-4.95 6.1-4.65L6.1-4.65Q6.05-5.7 6.23-6.78 6.4-7.85 6.5-8.75L6.5-8.75Q6.65-10.05 6.75-11.08 6.85-12.1 6.9-13.55L6.9-13.55Q7-15.1 6.93-16.95 6.85-18.8 6.1-20.55L6.1-20.55Q6.1-20.7 6.15-20.7L6.15-20.7Q6.25-20.7 6.3-20.65 6.35-20.6 6.45-20.55L6.45-20.55Q7.1-20.05 7.53-19.18 7.95-18.3 8.18-17.23 8.4-16.15 8.47-14.98 8.55-13.8 8.55-12.75L8.55-12.75Q9.3-14.1 10.1-15.45 10.9-16.8 11.53-18.13 12.15-19.45 12.5-20.75 12.85-22.05 12.8-23.3L12.8-23.3Q12.8-23.45 12.9-23.45L12.9-23.45Q12.95-23.5 12.98-23.4 13-23.3 13-23.2ZM8.95 0L8.95 0Q8.95 0.2 8.85 0.2L8.85 0.2Q8.8 0.2 8.68 0.13 8.55 0.05 8.45 0L8.45 0Q8.05-0.3 7.88-0.85 7.7-1.4 7.8-2.5L7.8-2.5Q7.8-2.95 7.9-3.5 8-4.05 8.15-4.53 8.3-5 8.45-5.28 8.6-5.55 8.75-5.5L8.75-5.5Q9-5.4 8.97-4.88 8.95-4.35 8.95-4.1L8.95-4.1Q8.9-2.8 8.9-1.75 8.9-0.7 8.95 0ZM20.6 0L20.6 0Q20.6 0.2 20.5 0.2L20.5 0.2Q20.45 0.2 20.33 0.13 20.2 0.05 20.1 0L20.1 0Q19.7-0.3 19.53-0.85 19.35-1.4 19.45-2.5L19.45-2.5Q19.45-2.95 19.55-3.5 19.65-4.05 19.8-4.53 19.95-5 20.1-5.28 20.25-5.55 20.4-5.5L20.4-5.5Q20.65-5.4 20.63-4.88 20.6-4.35 20.6-4.1L20.6-4.1Q20.55-2.8 20.55-1.75 20.55-0.7 20.6 0ZM48.65-17.6L48.65-17.6Q48.25-15.6 47.3-13.6 46.35-11.6 45.5-9.85L45.5-9.85Q45.45-9.75 45.27-9.5 45.1-9.25 45-9.25L45-9.25Q44.85-9.3 44.85-9.58 44.85-9.85 44.85-9.95L44.85-9.95Q44.9-10.4 45.02-11.03 45.15-11.65 45.25-12.33 45.35-13 45.47-13.63 45.6-14.25 45.75-14.75L45.75-14.75Q46.2-16.45 46.5-17.68 46.8-18.9 46.95-19.9 47.1-20.9 47.12-21.8 47.15-22.7 47-23.75L47-23.75Q46.95-24.15 47.05-24.25L47.05-24.25Q47.15-24.3 47.3-24.15 47.45-24 47.55-23.85L47.55-23.85Q48.4-22.5 48.7-20.88 49-19.25 48.65-17.6ZM49.65-21.25L49.85-20.95Q50.5-20 50.5-18.45 50.5-16.9 50.2-15.28 49.9-13.65 49.45-12.15 49-10.65 48.8-9.75L48.8-9.75Q48.4-8 47.7-6.25 47-4.5 46.5-3.15L46.5-3.15Q46.45-3 46.35-2.83 46.25-2.65 46.15-2.65L46.15-2.65Q46.05-2.65 46.05-2.85 46.05-3.05 46.05-3.2L46.05-3.2Q45.9-5.95 46.65-8.58 47.4-11.2 48.25-13.9L48.25-13.9Q48.75-15.55 49.2-17.28 49.65-19 49.6-21.05L49.6-21.05Q49.6-21.25 49.65-21.25L49.65-21.25ZM45.15-21.8L45.15-21.8Q42.1-20.55 39.97-18.23 37.85-15.9 36.7-13L36.7-13Q36.2-11.7 35.95-10.68 35.7-9.65 35.55-8.45L35.55-8.45Q35.5-8.2 35.7-7.95 35.9-7.7 36.1-7.95L36.1-7.95Q37-9.05 38.4-10.75 39.8-12.45 41.2-14.35 42.6-16.25 43.72-18.2 44.85-20.15 45.15-21.8ZM41.8-4.85L41.8-4.85Q41.05-3.8 40.35-2.9 39.65-2 38.8-1.33 37.95-0.65 36.9-0.25 35.85 0.15 34.5 0.2L34.5 0.2Q32.25 0.3 31.07-0.95 29.9-2.2 29.45-4 29-5.8 29.12-7.73 29.25-9.65 29.65-10.9L29.65-10.9Q30.2-12.65 30.97-14.23 31.75-15.8 32.62-17.07 33.5-18.35 34.42-19.28 35.35-20.2 36.25-20.7L36.25-20.7Q36.3-20.7 36.47-20.8 36.65-20.9 36.65-20.75L36.65-20.75Q36.7-20.75 36.6-20.6 36.5-20.45 36.4-20.35L36.4-20.35Q33.8-17.65 32.27-14.25 30.75-10.85 30.55-7.25L30.55-7.25Q30.5-6.35 30.62-5.3 30.75-4.25 31.12-3.33 31.5-2.4 32.2-1.78 32.9-1.15 34.1-1.15L34.1-1.15Q35.05-1.15 35.85-1.48 36.65-1.8 37.35-2.33 38.05-2.85 38.62-3.48 39.2-4.1 39.65-4.65L39.65-4.65Q40.65-5.9 41.5-7.25L41.5-7.25Q41.5-8.25 41.62-9.2 41.75-10.15 42-11.1L42-11.1Q42.15-11.8 42.27-12.23 42.4-12.65 42.52-13.03 42.65-13.4 42.77-13.83 42.9-14.25 43.15-14.95L43.15-14.95Q42.35-13.55 41.57-12.33 40.8-11.1 39.92-9.98 39.05-8.85 38.12-7.78 37.2-6.7 36.1-5.6L36.1-5.6Q35.25-4.75 34.7-5.05 34.15-5.35 34.05-6.45L34.05-6.45Q33.95-8.15 34.22-9.75 34.5-11.35 35.2-13.1L35.2-13.1Q35.85-14.7 36.82-16.2 37.8-17.7 39.07-18.93 40.35-20.15 41.9-21.03 43.45-21.9 45.2-22.2L45.2-22.2Q45.3-22.75 45.37-23.15 45.45-23.55 45.5-23.95L45.5-23.95Q45.6-24.5 45.6-24.5L45.6-24.5Q45.7-24.55 45.82-24.4 45.95-24.25 46.05-24L46.05-24Q46.65-22.35 46.45-20.7 46.25-19.05 45.72-17.35 45.2-15.65 44.5-13.88 43.8-12.1 43.35-10.3L43.35-10.3Q42.75-7.75 43.02-5.03 43.3-2.3 45.15-0.1L45.15-0.1Q45.3 0.1 45.3 0.1L45.3 0.1Q45.25 0.15 45 0L45 0Q43.55-0.9 42.82-2.18 42.1-3.45 41.8-4.85ZM43.55-22.55L43.55-22.55Q43.65-22.45 43.52-22.4 43.4-22.35 43-22.25L43-22.25Q42.35-22.05 41.42-21.5 40.5-20.95 39.47-20.1 38.45-19.25 37.45-18.13 36.45-17 35.7-15.7L35.7-15.7Q34.95-14.35 34.42-13.05 33.9-11.75 33.57-10.68 33.25-9.6 33.1-8.83 32.95-8.05 32.95-7.75L32.95-7.75Q32.95-7 32.95-6.18 32.95-5.35 33.15-4.7 33.35-4.05 33.85-3.7 34.35-3.35 35.35-3.5L35.35-3.5Q35.4-3.5 35.6-3.58 35.8-3.65 36-3.73 36.2-3.8 36.37-3.85 36.55-3.9 36.6-3.9L36.6-3.9Q36.65-3.8 36.52-3.65 36.4-3.5 36.2-3.33 36-3.15 35.82-3 35.65-2.85 35.6-2.8L35.6-2.8Q34.35-2.05 33.5-2.35 32.65-2.65 32.17-3.48 31.7-4.3 31.52-5.43 31.35-6.55 31.4-7.45L31.4-7.45Q31.5-9.2 31.95-10.93 32.4-12.65 33.1-14.4L33.1-14.4Q33.65-15.75 34.75-17.18 35.85-18.6 37.22-19.8 38.6-21 40.1-21.78 41.6-22.55 43-22.6L43-22.6Q43.5-22.6 43.55-22.55ZM46.5-0.1L46.5-0.1Q46.6 0.05 46.55 0.1L46.55 0.1Q46.4 0.1 46.15 0L46.15 0Q46-0.1 45.35-0.6 44.7-1.1 44.4-2.2L44.4-2.2Q44.3-2.6 44.22-3.23 44.15-3.85 44.15-4.4 44.15-4.95 44.22-5.35 44.3-5.75 44.45-5.75L44.45-5.75Q44.6-5.75 44.77-5.15 44.95-4.55 45-4.4L45-4.4Q45.15-3.7 45.27-3.18 45.4-2.65 45.55-2.2L45.55-2.2Q45.75-1.65 46.07-0.95 46.4-0.25 46.5-0.1ZM60.45-26.05L60.45-26.05Q60.75-27.15 60.85-28.73 60.95-30.3 60.85-31.88 60.75-33.45 60.37-34.85 60-36.25 59.25-37L59.25-37Q58.95-37.3 58.77-37.2 58.6-37.1 58.85-36.7L58.85-36.7Q59.35-35.8 59.32-33.93 59.3-32.05 59-29.85 58.7-27.65 58.2-25.45 57.7-23.25 57.2-21.6L57.2-21.6Q56.95-20.9 56.7-19.85 56.45-18.8 56.17-17.73 55.9-16.65 55.7-15.63 55.5-14.6 55.4-13.9L55.4-13.9Q55.4-13.75 55.35-13.33 55.3-12.9 55.45-12.8L55.45-12.8Q55.55-12.8 55.75-13.23 55.95-13.65 56-13.75L56-13.75Q57.2-16.55 58.45-19.73 59.7-22.9 60.45-26.05ZM59.3-13.85L59.3-13.85Q59.55-14.75 60-16.2 60.45-17.65 60.9-19.38 61.35-21.1 61.77-22.98 62.2-24.85 62.42-26.63 62.65-28.4 62.57-29.9 62.5-31.4 62.05-32.35L62.05-32.35Q62-32.5 61.85-32.65 61.7-32.8 61.7-32.4L61.7-32.4Q61.8-29.2 61.05-26 60.3-22.8 59.45-20.2L59.45-20.2Q58.8-18.15 58.12-16.1 57.45-14.05 56.97-12.03 56.5-10 56.37-8.05 56.25-6.1 56.75-4.3L56.75-4.3Q56.95-3.65 57.1-3.65L57.1-3.65Q57.25-3.7 57.25-4.3L57.25-4.3Q57.25-5.2 57.42-6.33 57.6-7.45 57.9-8.7 58.2-9.95 58.55-11.28 58.9-12.6 59.3-13.85ZM58.35-0.15L58.35-0.15Q56.6-0.35 55.22-1.9 53.85-3.45 53.4-5.7L53.4-5.7Q52.95-7.85 53.17-10.08 53.4-12.3 53.95-14.25L53.95-14.25Q54.75-17.25 55.85-20.43 56.95-23.6 57.72-26.7 58.5-29.8 58.6-32.68 58.7-35.55 57.6-37.95L57.6-37.95Q57.5-38 57.45-38.18 57.4-38.35 57.3-38.3L57.3-38.3Q57.15-38.3 57.25-37.95L57.25-37.95Q57.65-35.65 57.3-32.98 56.95-30.3 56.17-27.43 55.4-24.55 54.42-21.5 53.45-18.45 52.6-15.4L52.6-15.4Q51.95-13.15 51.72-10.63 51.5-8.1 52.05-5.55L52.05-5.55Q52.35-4.25 52.97-3.2 53.6-2.15 54.45-1.43 55.3-0.7 56.3-0.3 57.3 0.1 58.35 0.05L58.35 0.05 58.5 0.05Q58.55 0.05 58.65 0L58.65 0Q58.65-0.15 58.35-0.15ZM56.85-2.65L56.85-2.65Q55.95-3.7 55.4-5.35L55.4-5.35Q55.35-5.5 55.25-5.83 55.15-6.15 55.05-6.48 54.95-6.8 54.85-7.08 54.75-7.35 54.7-7.35L54.7-7.35Q54.5-7.35 54.5-6.7 54.5-6.05 54.65-5.2 54.8-4.35 55.1-3.48 55.4-2.6 55.8-2.1L55.8-2.1Q56.6-1.2 57.42-1 58.25-0.8 59.1-0.8L59.1-0.8Q59.4-0.8 59.57-0.98 59.75-1.15 59.3-1.25L59.3-1.25Q57.85-1.4 56.85-2.65ZM75.74-22.2L75.74-22.2Q75.79-22.15 75.79-21.98 75.79-21.8 75.74-21.7L75.74-21.7Q75.29-20.25 74.19-19.65 73.09-19.05 72.24-19.05L72.24-19.05Q71.19-19.05 70.09-19.23 68.99-19.4 67.99-20.15L67.99-20.15Q67.89-20.25 67.74-20.35 67.59-20.45 67.59-20.55L67.59-20.55Q67.59-20.7 67.74-20.78 67.89-20.85 67.99-20.9L67.99-20.9Q68.44-21 69.17-21.08 69.89-21.15 70.59-21.05L70.59-21.05Q71.09-20.95 71.79-20.95 72.49-20.95 73.22-21.05 73.94-21.15 74.54-21.38 75.14-21.6 75.44-22.05L75.44-22.05Q75.59-22.25 75.74-22.2ZM76.09-23.75L76.09-23.75 75.94-23.5Q75.09-22.4 74.14-22.08 73.19-21.75 72.14-21.8 71.09-21.85 70.02-22.08 68.94-22.3 67.89-22.35L67.89-22.35Q66.49-22.4 65.09-21.5 63.69-20.6 62.69-18.35L62.69-18.35Q62.54-18.05 62.49-18.23 62.44-18.4 62.49-18.55L62.49-18.55Q62.89-20.05 63.44-21.05 63.99-22.05 64.62-22.68 65.24-23.3 65.94-23.6 66.64-23.9 67.39-24L67.39-24Q68.24-26.85 68.72-29.58 69.19-32.3 68.79-34.75L68.79-34.75Q68.79-34.95 68.79-34.95L68.79-34.95Q68.89-35 68.99-34.9 69.09-34.8 69.09-34.75L69.09-34.75Q70.19-32.35 69.99-29.63 69.79-26.9 68.99-23.9L68.99-23.9Q69.24-23.85 69.39-23.85 69.54-23.85 69.74-23.85L69.74-23.85Q69.99-25.15 70.22-26.63 70.44-28.1 70.57-29.45 70.69-30.8 70.64-31.9 70.59-33 70.29-33.55L70.29-33.55Q70.14-34 70.29-34L70.29-34Q70.39-34 70.44-33.9 70.49-33.8 70.59-33.7L70.59-33.7Q71.29-33 71.69-31.8 72.09-30.6 72.24-29.25 72.39-27.9 72.34-26.58 72.29-25.25 72.04-24.25L72.04-24.25 71.84-23.45Q71.99-23.35 72.14-23.35 72.29-23.35 72.44-23.3L72.44-23.3Q72.74-24.8 72.97-26.3 73.19-27.8 73.14-29.45L73.14-29.45Q73.14-29.8 73.19-29.8L73.19-29.8Q73.29-29.8 73.34-29.65 73.39-29.5 73.44-29.4L73.44-29.4Q74.04-28.3 74.02-26.65 73.99-25 73.74-23.15L73.74-23.15Q74.84-23.15 75.84-23.75L75.84-23.75Q76.09-23.9 76.09-23.75ZM65.74-20.35L65.74-20.35Q65.74-20.1 65.47-19.85 65.19-19.6 65.04-19.5L65.04-19.5Q64.79-19.3 64.47-19.03 64.14-18.75 63.89-18.45L63.89-18.45Q63.64-18.05 63.42-17.75 63.19-17.45 63.04-16.9L63.04-16.9Q62.99-16.8 62.92-16.73 62.84-16.65 62.79-16.7L62.79-16.7Q62.64-16.85 62.79-17.35L62.79-17.35Q62.99-18.1 63.19-18.57 63.39-19.05 63.94-19.6L63.94-19.6Q64.14-19.8 64.44-20 64.74-20.2 65.04-20.35 65.34-20.5 65.54-20.5 65.74-20.5 65.74-20.35ZM69.64-0.25L69.64-0.25Q69.89-0.35 69.84-0.2 69.79-0.05 69.69 0L69.69 0Q68.79 0.3 67.79-0.1 66.79-0.5 65.94-1.35 65.09-2.2 64.49-3.33 63.89-4.45 63.74-5.55L63.74-5.55Q63.49-7.9 63.69-10.1 63.89-12.3 64.44-14.45L64.44-14.45 65.29-17.6Q64.99-17.6 64.69-17.75L64.69-17.75Q64.34-17.85 64.34-18L64.34-18Q64.34-18.1 64.69-18.3L64.69-18.3Q66.09-19 67.52-18.9 68.94-18.8 70.39-18.55L70.39-18.55Q71.29-18.4 72.22-18.32 73.14-18.25 74.24-18.7L74.24-18.7Q74.34-18.8 74.44-18.75L74.44-18.75Q74.54-18.65 74.39-18.4L74.39-18.4Q74.09-17.75 73.54-17.45 72.99-17.15 72.39-17L72.39-17Q71.99-15.7 71.69-14.68 71.39-13.65 71.19-12.95L71.19-12.95Q70.64-10.55 69.92-8.08 69.19-5.6 68.94-3.9L68.94-3.9Q68.84-3.35 68.74-3.3L68.74-3.3Q68.64-3.25 68.54-3.5 68.44-3.75 68.39-3.9L68.39-3.9Q68.19-5.35 68.32-6.93 68.44-8.5 68.79-10.15 69.14-11.8 69.59-13.48 70.04-15.15 70.54-16.85L70.54-16.85Q70.29-16.85 70.04-16.85 69.79-16.85 69.54-16.9L69.54-16.9Q69.14-15.85 68.72-14.83 68.29-13.8 67.89-12.9L67.89-12.9Q67.84-12.8 67.67-12.43 67.49-12.05 67.39-12.05L67.39-12.05Q67.19-12.1 67.24-12.53 67.29-12.95 67.29-13.1L67.29-13.1Q67.39-13.85 67.62-14.85 67.84-15.85 68.04-17L68.04-17Q67.79-17.05 67.49-17.07 67.19-17.1 66.89-17.2L66.89-17.2Q66.59-16.2 66.32-15.25 66.04-14.3 65.79-13.35L65.79-13.35Q65.39-11.6 65.19-9.63 64.99-7.65 65.19-5.55L65.19-5.55Q65.29-4.6 65.72-3.6 66.14-2.6 66.74-1.8 67.34-1 68.12-0.55 68.89-0.1 69.64-0.25ZM70.09-1.35L70.09-1.35Q70.34-1.55 70.39-1.38 70.44-1.2 70.19-1.05L70.19-1.05Q69.99-0.9 69.67-0.83 69.34-0.75 68.94-0.8 68.54-0.85 68.09-1.1 67.64-1.35 67.24-1.9L67.24-1.9Q66.89-2.35 66.67-3.2 66.44-4.05 66.34-4.88 66.24-5.7 66.29-6.3 66.34-6.9 66.54-6.9L66.54-6.9Q66.79-6.9 66.92-6.2 67.04-5.5 67.14-5.05L67.14-5.05Q67.34-4.25 67.69-3.4 68.04-2.55 68.44-2.05L68.44-2.05Q68.94-1.4 69.34-1.28 69.74-1.15 70.09-1.35ZM88.64-20.4L88.64-20.4Q89.04-19.9 89.27-19.15 89.49-18.4 89.44-17.53 89.39-16.65 89.04-15.7 88.69-14.75 87.94-13.85L87.94-13.85Q86.49-12.15 84.77-11.23 83.04-10.3 81.64-10.3L81.64-10.3Q80.79-10.3 81.64-10.6L81.64-10.6Q82.09-10.75 82.72-11.08 83.34-11.4 84.04-11.88 84.74-12.35 85.47-13 86.19-13.65 86.79-14.5L86.79-14.5Q87.79-15.9 87.97-17.23 88.14-18.55 87.44-19.25L87.44-19.25Q86.84-19.85 86.04-19.93 85.24-20 83.64-19.05L83.64-19.05Q82.19-18.2 81.04-16.95 79.89-15.7 78.89-14.3L78.89-14.3Q78.34-13.6 78.17-13.6 77.99-13.6 78.29-14.5L78.29-14.5Q78.89-16.25 79.97-17.75 81.04-19.25 82.54-20.3L82.54-20.3Q83.64-21.05 84.56-21.35 85.49-21.65 86.27-21.6 87.04-21.55 87.64-21.23 88.24-20.9 88.64-20.4ZM91.34-16.9L91.34-16.9Q91.14-15.7 90.72-14.88 90.29-14.05 89.77-13.48 89.24-12.9 88.72-12.55 88.19-12.2 87.79-11.9L87.79-11.9Q87.59-11.75 87.49-11.85 87.39-11.95 87.64-12.2L87.64-12.2Q88.54-12.95 89.47-14.23 90.39-15.5 90.44-17.05L90.44-17.05Q90.44-19.7 89.14-21.1L89.14-21.1Q87.84-22.5 85.89-22.33 83.94-22.15 81.84-20.8L81.84-20.8Q80.49-19.95 79.47-18.82 78.44-17.7 77.69-16.43 76.94-15.15 76.47-13.8 75.99-12.45 75.79-11.1L75.79-11.1Q75.59-9.8 75.42-8.3 75.24-6.8 75.42-5.35 75.59-3.9 76.34-2.58 77.09-1.25 78.69-0.3L78.69-0.3Q78.94-0.15 79.22-0.1 79.49-0.05 79.49 0L79.49 0Q79.49 0.1 79.24 0.13 78.99 0.15 78.69 0.05L78.69 0.05Q77.44-0.2 76.56-0.98 75.69-1.75 75.14-2.75 74.59-3.75 74.29-4.85 73.99-5.95 73.94-6.85L73.94-6.85Q73.64-10.8 75.04-14.65L75.04-14.65Q75.34-15.45 75.81-16.45 76.29-17.45 76.99-18.48 77.69-19.5 78.64-20.48 79.59-21.45 80.79-22.2L80.79-22.2Q81.94-22.9 83.19-23.25 84.44-23.6 85.69-23.58 86.94-23.55 88.04-23.13 89.14-22.7 89.99-21.85L89.99-21.85Q90.74-21.05 91.17-19.8 91.59-18.55 91.34-16.9ZM86.79-18.7L86.79-18.7Q87.39-18 86.94-16.53 86.49-15.05 84.84-13.55L84.84-13.55Q83.94-12.7 83.09-12.18 82.24-11.65 80.94-11.25L80.94-11.25Q80.39-9.35 80.24-7.5 80.09-5.65 80.34-4.5L80.34-4.5Q80.39-4.05 80.67-3.63 80.94-3.2 81.47-2.98 81.99-2.75 82.84-2.8 83.69-2.85 84.94-3.35L84.94-3.35Q85.29-3.5 85.37-3.43 85.44-3.35 85.04-3.1L85.04-3.1Q84.14-2.4 83.14-2.13 82.14-1.85 81.27-1.95 80.39-2.05 79.77-2.55 79.14-3.05 78.94-3.9L78.94-3.9Q78.54-5.65 78.59-7.55 78.64-9.45 79.17-11.3 79.69-13.15 80.67-14.78 81.64-16.4 83.09-17.55L83.09-17.55Q85.79-19.7 86.79-18.7ZM86.29-2.75L86.29-2.75Q85.94-2.25 85.42-1.78 84.89-1.3 84.22-0.93 83.54-0.55 82.81-0.3 82.09-0.05 81.34-0.05L81.34-0.05Q80.04-0.05 78.92-0.63 77.79-1.2 77.19-2.95L77.19-2.95Q77.09-3.15 77.09-3.33 77.09-3.5 77.19-3.5L77.19-3.5Q77.39-3.6 77.59-3.38 77.79-3.15 77.99-2.9L77.99-2.9Q78.54-2.25 79.42-1.75 80.29-1.25 81.09-1.25L81.09-1.25Q82.59-1.25 83.69-1.7 84.79-2.15 85.79-2.9L85.79-2.9Q86.04-3.05 86.37-3.2 86.69-3.35 86.29-2.75ZM85.59-17.35L85.59-17.35Q85.39-17.75 84.14-16.7L84.14-16.7Q82.99-15.8 82.31-14.63 81.64-13.45 81.14-12.05L81.14-12.05Q82.09-12.5 82.89-13.08 83.69-13.65 84.39-14.2L84.39-14.2Q85.14-14.85 85.49-15.9 85.84-16.95 85.59-17.35ZM97.79-16.65L97.79-16.65Q97.39-14.95 96.66-13.08 95.94-11.2 95.04-9.6L95.04-9.6Q95.04-9.5 94.91-9.28 94.79-9.05 94.59-9.05L94.59-9.05Q94.49-9.05 94.46-9.35 94.44-9.65 94.49-9.75L94.49-9.75Q94.49-10.55 94.69-11.88 94.89-13.2 95.19-14.05L95.19-14.05Q95.29-14.35 95.51-15.5 95.74-16.65 95.91-18.07 96.09-19.5 96.11-20.83 96.14-22.15 95.79-22.8L95.79-22.8 95.79-23Q95.99-23.15 96.24-22.9L96.24-22.9Q96.89-22.35 97.26-21.55 97.64-20.75 97.81-19.88 97.99-19 97.96-18.15 97.94-17.3 97.79-16.65ZM99.74-16.85L99.74-16.85Q100.29-17.55 100.79-17.85 101.29-18.15 101.79-18.35L101.79-18.35Q101.84-18.35 102.04-18.4 102.24-18.45 102.34-18.3L102.34-18.3Q102.44-18.15 102.29-17.95 102.14-17.75 102.04-17.65L102.04-17.65Q101.69-17.3 101.26-16.88 100.84-16.45 100.49-16.05L100.49-16.05Q99.99-15.5 99.69-14.78 99.39-14.05 99.24-13.3L99.24-13.3Q100.09-14.2 100.86-15 101.64-15.8 102.54-16.5L102.54-16.5Q103.69-17.35 104.54-18.7 105.39-20.05 105.74-22.65L105.74-22.65Q105.84-22.9 105.99-22.95 106.14-23 106.14-22.6L106.14-22.6Q106.29-19.7 105.54-18 104.79-16.3 103.29-15.15L103.29-15.15Q102.49-14.55 101.69-13.85 100.89-13.15 100.16-12.3 99.44-11.45 98.84-10.3 98.24-9.15 97.79-7.65L97.79-7.65Q97.44-6.5 97.09-5.48 96.74-4.45 96.34-3.5L96.34-3.5Q96.24-3.15 96.04-3.15L96.04-3.15Q95.89-3.2 95.89-3.65L95.89-3.65Q95.64-6.05 96.21-8.43 96.79-10.8 97.59-13.35L97.59-13.35Q97.94-14.6 98.41-15.85 98.89-17.1 98.84-18.7L98.84-18.7Q98.84-19.25 99.29-19.85 99.74-20.45 100.39-20.98 101.04-21.5 101.74-21.88 102.44-22.25 102.94-22.4L102.94-22.4Q103.39-22.55 103.39-22.35 103.39-22.15 103.09-21.85L103.09-21.85Q102.04-20.9 100.96-19.6 99.89-18.3 99.74-16.85ZM95.39-0.05L95.39-0.05Q95.34 0 95.31-0.03 95.29-0.05 95.04-0.2L95.04-0.2Q93.54-1.3 92.69-2.6 91.84-3.9 91.46-5.28 91.09-6.65 91.14-8.03 91.19-9.4 91.49-10.7L91.49-10.7Q91.89-12.45 92.46-14.18 93.04-15.9 93.54-17.53 94.04-19.15 94.29-20.73 94.54-22.3 94.29-23.75L94.29-23.75Q94.29-23.85 94.44-23.9L94.44-23.9Q94.49-23.9 94.54-23.83 94.59-23.75 94.64-23.7L94.64-23.7Q95.59-22.1 95.59-20.43 95.59-18.75 95.14-17.03 94.69-15.3 94.01-13.53 93.34-11.75 92.94-9.95L92.94-9.95Q92.44-7.65 92.86-5.05 93.29-2.45 95.19-0.4L95.19-0.4Q95.29-0.25 95.39-0.2 95.49-0.15 95.39-0.05ZM96.89 0L96.89 0Q96.79 0 96.69-0.05L96.69-0.05 96.49-0.15Q95.79-0.6 95.24-1.13 94.69-1.65 94.29-2.65L94.29-2.65Q94.14-3 94.04-3.58 93.94-4.15 93.91-4.65 93.89-5.15 93.96-5.5 94.04-5.85 94.24-5.8L94.24-5.8Q94.39-5.8 94.56-5.4 94.74-5 94.84-4.6L94.84-4.6Q94.94-4.05 95.06-3.55 95.19-3.05 95.39-2.65L95.39-2.65Q95.94-1.4 96.84-0.25L96.84-0.25Q96.94 0 96.89 0ZM105.04-22.45L105.04-22.45Q105.04-21.4 104.44-20.6 103.84-19.8 102.99-19.25L102.99-19.25Q102.84-19.15 102.79-19.28 102.74-19.4 102.74-19.45L102.74-19.45Q102.74-19.75 102.99-20.18 103.24-20.6 103.56-21.08 103.89-21.55 104.19-22.05 104.49-22.55 104.59-22.95L104.59-22.95Q104.74-23.2 104.89-22.95 105.04-22.7 105.04-22.45Z" opacity="1" transform="matrix(1,0,0,1,0,0)" fill="#000000" class="wordmark-text-0" data-fill-palette-color="primary" id="text-0"></path></svg></g></svg></g><g transform="matrix(1,0,0,1,75.54432,178.70866487107125)"><svg viewBox="0 0 244.43135999999998 20.077369603573423" height="20.077369603573423" width="244.43135999999998"><g transform="matrix(1,0,0,1,0,0)"><svg width="244.43135999999998" viewBox="0.78 -32.03 393.47 32.32" height="20.077369603573423" data-palette-color="#d2d6dc"><path d="M10.62-9.18L9.79 0 3.66 0 0.78-23.75 3.83-23.75 5.03-11.82 5.93-2.71 7.45-2.71 8.13-11.82 9.45-23.68 15.7-23.68 16.97-11.82 17.68-2.71 19.19-2.71 20.14-11.82 21.34-23.75 24.49-23.75 21.44 0 15.31 0 14.5-9.18 13.43-21 11.69-21 10.62-9.18ZM33.05 0.27L33.05 0.27Q30.08 0.27 28.65-0.9 27.22-2.08 26.98-4.57L26.98-4.57Q26.95-5.05 26.91-5.54 26.88-6.03 26.93-6.49L26.93-6.49Q27.1-8.67 28.29-10.14 29.49-11.62 32.83-12.84L32.83-12.84Q34.2-13.33 35.72-13.72 37.23-14.11 38.72-14.48L38.72-14.48 38.72-18.99Q38.72-20.19 37.81-20.76 36.91-21.34 34.67-21.34L34.67-21.34Q32.71-21.34 31.7-20.85 30.69-20.36 30.59-19.07L30.59-19.07Q30.54-18.46 30.54-17.32 30.54-16.19 30.59-15.41L30.59-15.41 27.54-15.41Q27.49-16.02 27.44-16.99 27.39-17.97 27.46-18.73L27.46-18.73Q27.59-21.56 29.31-22.81 31.03-24.07 34.79-24.07L34.79-24.07Q38.72-24.07 40.24-22.71 41.77-21.34 41.79-18.21L41.79-18.21 41.79 0 38.72 0 38.72-2.25 38.03-2.25Q37.42-1.03 36.29-0.38 35.15 0.27 33.05 0.27ZM33.84-2.37L33.84-2.37Q37.35-2.37 38.69-4.47L38.69-4.47 38.69-11.87Q37.52-11.62 36.29-11.29 35.06-10.96 33.4-10.4L33.4-10.4Q31.42-9.67 30.76-8.72 30.1-7.76 30-6.49L30-6.49Q30.03-6.13 30.04-5.7 30.05-5.27 30.1-4.81L30.1-4.81Q30.27-3.64 31.27-3 32.27-2.37 33.84-2.37ZM50.04-31.69L50.04 0 46.87 0 46.87-31.69 50.04-31.69ZM58.24-7.89L58.24 0 55.19 0 55.19-31.69 58.2-31.69 58.2-23.88 57.93-13.53 58.76-13.53 61.13-18.14 64.79-23.75 68.11-23.75 62.05-14.18 69.52 0 66.23 0 60.2-10.5 58.24-7.89ZM79.29 0.29L79.29 0.29Q75.26 0.29 73.54-0.98 71.82-2.25 71.69-5.13L71.69-5.13Q71.6-6.93 71.56-9.38 71.52-11.82 71.56-14.28 71.6-16.75 71.69-18.58L71.69-18.58Q71.82-21.53 73.59-22.8 75.36-24.07 79.29-24.07L79.29-24.07Q83-24.07 84.66-22.83 86.32-21.58 86.49-18.73L86.49-18.73Q86.54-17.87 86.59-15.75 86.64-13.62 86.44-11.23L86.44-11.23 74.75-11.23Q74.75-9.69 74.77-8.11 74.79-6.52 74.87-4.81L74.87-4.81Q74.89-3.47 75.89-2.95 76.89-2.44 79.19-2.44L79.19-2.44Q81.46-2.44 82.39-2.95 83.32-3.47 83.41-4.81L83.41-4.81Q83.49-6.15 83.41-8.47L83.41-8.47 86.44-8.47Q86.56-7.76 86.55-6.82 86.54-5.88 86.49-5.13L86.49-5.13Q86.32-2.25 84.74-0.98 83.17 0.29 79.29 0.29ZM74.75-13.82L74.75-13.82 83.46-13.82Q83.51-15.48 83.51-16.99 83.51-18.51 83.41-19.07L83.41-19.07Q83.32-20.29 82.36-20.81 81.41-21.34 79.29-21.34L79.29-21.34Q76.92-21.34 75.91-20.81 74.89-20.29 74.87-19.07L74.87-19.07Q74.79-17.65 74.76-16.36 74.72-15.06 74.75-13.82ZM93.81-19.19L93.81 0 90.66 0 90.66-23.75 93.81-23.75 93.81-21.53 94.49-21.53Q95.13-22.75 96.18-23.41 97.23-24.07 98.79-24.07L98.79-24.07Q101.13-24.07 102.27-22.84 103.41-21.61 103.41-18.58L103.41-18.58Q103.41-17.92 103.36-17.02 103.31-16.11 103.21-15.41L103.21-15.41 100.18-15.41Q100.23-15.65 100.24-16.26 100.26-16.87 100.27-17.48 100.28-18.09 100.28-18.31L100.28-18.31Q100.28-20.12 99.67-20.76 99.06-21.41 97.72-21.41L97.72-21.41Q94.86-21.41 93.81-19.19L93.81-19.19ZM125.25-9.18L124.42 0 118.29 0 115.41-23.75 118.46-23.75 119.66-11.82 120.56-2.71 122.08-2.71 122.76-11.82 124.08-23.68 130.33-23.68 131.6-11.82 132.31-2.71 133.82-2.71 134.77-11.82 135.97-23.75 139.12-23.75 136.07 0 129.94 0 129.13-9.18 128.06-21 126.33-21 125.25-9.18ZM147.69 0.27L147.69 0.27Q144.71 0.27 143.28-0.9 141.85-2.08 141.61-4.57L141.61-4.57Q141.58-5.05 141.54-5.54 141.51-6.03 141.56-6.49L141.56-6.49Q141.73-8.67 142.92-10.14 144.12-11.62 147.47-12.84L147.47-12.84Q148.83-13.33 150.35-13.72 151.86-14.11 153.35-14.48L153.35-14.48 153.35-18.99Q153.35-20.19 152.45-20.76 151.54-21.34 149.3-21.34L149.3-21.34Q147.34-21.34 146.33-20.85 145.32-20.36 145.22-19.07L145.22-19.07Q145.17-18.46 145.17-17.32 145.17-16.19 145.22-15.41L145.22-15.41 142.17-15.41Q142.12-16.02 142.07-16.99 142.02-17.97 142.09-18.73L142.09-18.73Q142.22-21.56 143.94-22.81 145.66-24.07 149.42-24.07L149.42-24.07Q153.35-24.07 154.88-22.71 156.4-21.34 156.43-18.21L156.43-18.21 156.43 0 153.35 0 153.35-2.25 152.67-2.25Q152.06-1.03 150.92-0.38 149.78 0.27 147.69 0.27ZM148.47-2.37L148.47-2.37Q151.98-2.37 153.32-4.47L153.32-4.47 153.32-11.87Q152.15-11.62 150.92-11.29 149.69-10.96 148.03-10.4L148.03-10.4Q146.05-9.67 145.39-8.72 144.73-7.76 144.63-6.49L144.63-6.49Q144.66-6.13 144.67-5.7 144.68-5.27 144.73-4.81L144.73-4.81Q144.9-3.64 145.9-3 146.9-2.37 148.47-2.37ZM164.67-31.69L164.67 0 161.5 0 161.5-31.69 164.67-31.69ZM172.88-7.89L172.88 0 169.82 0 169.82-31.69 172.83-31.69 172.83-23.88 172.56-13.53 173.39-13.53 175.76-18.14 179.42-23.75 182.74-23.75 176.68-14.18 184.15 0 180.86 0 174.83-10.5 172.88-7.89ZM203.85 0.29L203.85 0.29Q200.04 0.29 198.71-0.98 197.38-2.25 197.38-5.13L197.38-5.13 197.38-21.02 195.04-21.02 195.04-23.75 197.46-23.75 197.46-30.49 200.56-30.49 200.56-23.75 205.93-23.75 205.93-21.02 200.53-21.02 200.53-4.79Q200.53-3.44 201.09-2.93 201.65-2.42 203.93-2.42L203.93-2.42Q204.85-2.42 205.35-2.45 205.85-2.49 206.51-2.51L206.51-2.51 206.51 0.1Q205.93 0.2 205.24 0.24 204.56 0.29 203.85 0.29ZM216.25 0.29L216.25 0.29Q212.27 0.29 210.64-1.07 209-2.44 208.88-5.62L208.88-5.62Q208.73-7.42 208.68-9.63 208.63-11.84 208.68-14.09 208.73-16.33 208.88-18.16L208.88-18.16Q209-21.34 210.65-22.71 212.3-24.07 216.25-24.07L216.25-24.07Q220.26-24.07 221.85-22.71 223.45-21.34 223.58-18.16L223.58-18.16Q223.72-16.36 223.77-14.15 223.82-11.94 223.77-9.7 223.72-7.47 223.58-5.62L223.58-5.62Q223.45-2.47 221.85-1.09 220.26 0.29 216.25 0.29ZM216.25-2.44L216.25-2.44Q218.5-2.44 219.45-2.99 220.4-3.54 220.48-4.81L220.48-4.81Q220.72-8.62 220.72-11.89 220.72-15.16 220.48-18.97L220.48-18.97Q220.4-20.26 219.47-20.8 218.55-21.34 216.25-21.34L216.25-21.34Q213.96-21.34 213.02-20.8 212.08-20.26 212-18.97L212-18.97Q211.78-15.16 211.77-11.88 211.76-8.59 212-4.81L212-4.81Q212.05-3.54 213.04-2.99 214.03-2.44 216.25-2.44ZM241.73-21.02L241.73 0 238.61 0 238.61-21.02 236.34-21.02 236.34-23.75 238.61-23.75 238.61-26.61Q238.61-29.52 240.03-30.77 241.44-32.03 244.69-32.03L244.69-32.03Q245.37-32.03 246.21-31.96 247.06-31.88 247.72-31.76L247.72-31.76 247.72-29.13Q246.4-29.2 244.76-29.2L244.76-29.2Q243.1-29.2 242.42-28.66 241.73-28.13 241.73-26.88L241.73-26.88 241.73-23.75 246.94-23.75 246.94-21.02 241.73-21.02ZM253.43-31.69L253.43-28.17 250.28-28.17 250.28-31.69 253.43-31.69ZM253.43-23.75L253.43 0 250.25 0 250.25-23.75 253.43-23.75ZM261.73-19.19L261.73 0 258.58 0 258.58-23.75 261.73-23.75 261.73-21.53 262.48-21.53Q263.24-22.75 264.47-23.41 265.7-24.07 267.58-24.07L267.58-24.07Q270.34-24.07 271.69-22.86 273.03-21.66 273.03-18.82L273.03-18.82 273.03 0 269.9 0 269.9-19.09Q269.9-20.31 269.13-20.86 268.37-21.41 266.66-21.41L266.66-21.41Q264.95-21.41 263.65-20.83 262.36-20.24 261.73-19.19L261.73-19.19ZM282.72 0.29L282.72 0.29Q279.96 0.29 278.62-0.93 277.27-2.15 277.2-4.96L277.2-4.96Q277.1-6.96 277.07-9.35 277.03-11.74 277.07-14.21 277.1-16.67 277.2-18.82L277.2-18.82Q277.27-21.66 278.65-22.86 280.03-24.07 282.77-24.07L282.77-24.07Q284.79-24.07 285.95-23.45 287.11-22.83 287.97-21.53L287.97-21.53 288.6-21.53 288.6-31.69 291.73-31.69 291.73 0 288.6 0 288.6-2.25 287.89-2.25Q287.06-1.03 285.9-0.37 284.75 0.29 282.72 0.29ZM283.62-2.37L283.62-2.37Q287.31-2.37 288.6-4.59L288.6-4.59 288.6-19.19Q287.33-21.41 283.65-21.41L283.65-21.41Q281.94-21.41 281.17-20.86 280.4-20.31 280.37-19.09L280.37-19.09Q280.23-15.43 280.25-11.66 280.28-7.89 280.37-4.69L280.37-4.69Q280.42-3.49 281.17-2.93 281.91-2.37 283.62-2.37ZM314.43-9.18L313.6 0 307.47 0 304.59-23.75 307.64-23.75 308.84-11.82 309.74-2.71 311.25-2.71 311.94-11.82 313.26-23.68 319.51-23.68 320.78-11.82 321.48-2.71 323-2.71 323.95-11.82 325.15-23.75 328.29-23.75 325.24 0 319.12 0 318.31-9.18 317.24-21 315.5-21 314.43-9.18ZM336.86 0.27L336.86 0.27Q333.88 0.27 332.45-0.9 331.03-2.08 330.78-4.57L330.78-4.57Q330.76-5.05 330.72-5.54 330.68-6.03 330.73-6.49L330.73-6.49Q330.9-8.67 332.1-10.14 333.3-11.62 336.64-12.84L336.64-12.84Q338.01-13.33 339.52-13.72 341.04-14.11 342.53-14.48L342.53-14.48 342.53-18.99Q342.53-20.19 341.62-20.76 340.72-21.34 338.47-21.34L338.47-21.34Q336.52-21.34 335.51-20.85 334.49-20.36 334.4-19.07L334.4-19.07Q334.35-18.46 334.35-17.32 334.35-16.19 334.4-15.41L334.4-15.41 331.34-15.41Q331.3-16.02 331.25-16.99 331.2-17.97 331.27-18.73L331.27-18.73Q331.39-21.56 333.11-22.81 334.84-24.07 338.59-24.07L338.59-24.07Q342.53-24.07 344.05-22.71 345.58-21.34 345.6-18.21L345.6-18.21 345.6 0 342.53 0 342.53-2.25 341.84-2.25Q341.23-1.03 340.1-0.38 338.96 0.27 336.86 0.27ZM337.64-2.37L337.64-2.37Q341.16-2.37 342.5-4.47L342.5-4.47 342.5-11.87Q341.33-11.62 340.1-11.29 338.86-10.96 337.2-10.4L337.2-10.4Q335.23-9.67 334.57-8.72 333.91-7.76 333.81-6.49L333.81-6.49Q333.83-6.13 333.85-5.7 333.86-5.27 333.91-4.81L333.91-4.81Q334.08-3.64 335.08-3 336.08-2.37 337.64-2.37ZM357.59 0.29L357.59 0.29Q353.78 0.29 352.45-0.98 351.12-2.25 351.12-5.13L351.12-5.13 351.12-21.02 348.77-21.02 348.77-23.75 351.19-23.75 351.19-30.49 354.29-30.49 354.29-23.75 359.66-23.75 359.66-21.02 354.27-21.02 354.27-4.79Q354.27-3.44 354.83-2.93 355.39-2.42 357.66-2.42L357.66-2.42Q358.59-2.42 359.09-2.45 359.59-2.49 360.25-2.51L360.25-2.51 360.25 0.1Q359.66 0.2 358.98 0.24 358.29 0.29 357.59 0.29ZM370.13 0.29L370.13 0.29Q366.1 0.29 364.38-0.98 362.66-2.25 362.54-5.13L362.54-5.13Q362.44-6.93 362.41-9.38 362.37-11.82 362.41-14.28 362.44-16.75 362.54-18.58L362.54-18.58Q362.66-21.53 364.43-22.8 366.2-24.07 370.13-24.07L370.13-24.07Q373.84-24.07 375.5-22.83 377.16-21.58 377.34-18.73L377.34-18.73Q377.38-17.87 377.43-15.75 377.48-13.62 377.29-11.23L377.29-11.23 365.59-11.23Q365.59-9.69 365.62-8.11 365.64-6.52 365.71-4.81L365.71-4.81Q365.74-3.47 366.74-2.95 367.74-2.44 370.04-2.44L370.04-2.44Q372.31-2.44 373.23-2.95 374.16-3.47 374.26-4.81L374.26-4.81Q374.33-6.15 374.26-8.47L374.26-8.47 377.29-8.47Q377.41-7.76 377.4-6.82 377.38-5.88 377.34-5.13L377.34-5.13Q377.16-2.25 375.59-0.98 374.01 0.29 370.13 0.29ZM365.59-13.82L365.59-13.82 374.31-13.82Q374.36-15.48 374.36-16.99 374.36-18.51 374.26-19.07L374.26-19.07Q374.16-20.29 373.21-20.81 372.26-21.34 370.13-21.34L370.13-21.34Q367.76-21.34 366.75-20.81 365.74-20.29 365.71-19.07L365.71-19.07Q365.64-17.65 365.6-16.36 365.57-15.06 365.59-13.82ZM384.66-19.19L384.66 0 381.51 0 381.51-23.75 384.66-23.75 384.66-21.53 385.34-21.53Q385.98-22.75 387.02-23.41 388.07-24.07 389.64-24.07L389.64-24.07Q391.98-24.07 393.12-22.84 394.25-21.61 394.25-18.58L394.25-18.58Q394.25-17.92 394.2-17.02 394.15-16.11 394.06-15.41L394.06-15.41 391.03-15.41Q391.08-15.65 391.09-16.26 391.1-16.87 391.11-17.48 391.13-18.09 391.13-18.31L391.13-18.31Q391.13-20.12 390.52-20.76 389.91-21.41 388.56-21.41L388.56-21.41Q385.71-21.41 384.66-19.19L384.66-19.19Z" opacity="1" transform="matrix(1,0,0,1,0,0)" fill="#000000" class="slogan-text-1" data-fill-palette-color="secondary" id="text-1"></path></svg></g></svg></g></svg></g></svg></g><g transform="matrix(1,0,0,1,86.00723359724215,0)"><svg viewBox="0 0 223.50553280551568 223.50553280551568" height="223.50553280551568" width="223.50553280551568"><g><svg></svg></g><g id="icon-0"><svg viewBox="0 0 223.50553280551568 223.50553280551568" height="223.50553280551568" width="223.50553280551568"><g><path d="M0 111.753c0-61.719 50.033-111.753 111.753-111.753 61.719 0 111.753 50.033 111.753 111.753 0 61.719-50.033 111.753-111.753 111.753-61.719 0-111.753-50.033-111.753-111.753zM111.753 210.467c54.519 0 98.715-44.196 98.714-98.714 0-54.519-44.196-98.715-98.714-98.715-54.519 0-98.715 44.196-98.715 98.715 0 54.519 44.196 98.715 98.715 98.714z" data-fill-palette-color="accent" fill="#000000" stroke="transparent"></path><ellipse rx="110.63523873873027" ry="110.63523873873027" cx="111.75276640275784" cy="111.75276640275784" fill="#000000" stroke="transparent" stroke-width="0" fill-opacity="1" data-fill-palette-color="accent"></ellipse></g><g transform="matrix(1,0,0,1,69.46701491829263,50.59293821583265)"><svg viewBox="0 0 84.57150296893042 122.31965637385038" height="122.31965637385038" width="84.57150296893042"><g><svg xmlns="http://www.w3.org/2000/svg" xmlns:xlink="http://www.w3.org/1999/xlink" version="1.1" x="0" y="0" viewBox="18.935 5.061492429852264 62.20399999999999 89.96850757014774" enable-background="new 0 0 100 100" xml:space="preserve" height="122.31965637385038" width="84.57150296893042" class="icon-dxe-0" data-fill-palette-color="quaternary" id="dxe-0"><path d="M54.571 22.429A8.684 8.684 0 1 0 54.57 5.062 8.684 8.684 0 0 0 54.57 22.429M54.571 8.784A4.97 4.97 0 0 1 59.533 13.746C59.533 16.482 57.307 18.708 54.571 18.708S49.609 16.482 49.609 13.746A4.97 4.97 0 0 1 54.571 8.784M51.283 62.5L44.604 76.396 25.677 95.03 18.935 88.178 36.656 70.741 43.871 55.73C45.781 59.82 50.173 62.005 51.283 62.5M81.139 91.854L72.056 95.004 64.925 74.443 51.825 61.371C51.11 61.053 45.263 58.319 44.333 53.142A3.3 3.3 0 0 1 44.286 52.551V36.064L37.234 40.209 36.044 55.099 36.015 55.097C35.866 56.916 34.359 58.352 32.501 58.352A3.543 3.543 0 0 1 28.958 54.809C28.958 54.715 28.978 54.628 28.986 54.536L28.958 54.534 30.435 36.054 30.394 35.985 47.905 25.692A8.28 8.28 0 0 1 53.315 24.278C57.645 24.651 60.877 28.46 60.877 32.805V56.824L73.277 69.197zM74.389 52.631L74.369 52.652C75.721 53.879 75.941 55.948 74.809 57.421A3.543 3.543 0 0 1 69.841 58.073C69.767 58.016 69.71 57.946 69.641 57.885L69.623 57.906 62.117 51.124V41.543z" fill="#ffffff" data-fill-palette-color="quaternary"></path></svg></g></svg></g></svg></g></svg></g><g></g></svg></g><defs></defs></svg><rect width="199.3104287747582" height="247.2" fill="none" stroke="none" visibility="hidden"></rect></g></svg></g></svg>